<svg width="45" height="45" viewBox="0 0 45 45" fill="none" xmlns="http://www.w3.org/2000/svg">
<rect width="45" height="45" rx="22.5" fill="#F7F8FB"/>
<path d="M22.5019 18.1405C20.0898 18.1405 18.1443 20.0861 18.1443 22.4981C18.1443 24.9102 20.0898 26.8557 22.5019 26.8557C24.9139 26.8557 26.8595 24.9102 26.8595 22.4981C26.8595 20.0861 24.9139 18.1405 22.5019 18.1405ZM22.5019 25.3311C20.9432 25.3311 19.6689 24.0606 19.6689 22.4981C19.6689 20.9356 20.9394 19.6651 22.5019 19.6651C24.0644 19.6651 25.3349 20.9356 25.3349 22.4981C25.3349 24.0606 24.0606 25.3311 22.5019 25.3311ZM28.0542 17.9622C28.0542 18.5273 27.5991 18.9786 27.0378 18.9786C26.4727 18.9786 26.0214 18.5235 26.0214 17.9622C26.0214 17.4009 26.4765 16.9458 27.0378 16.9458C27.5991 16.9458 28.0542 17.4009 28.0542 17.9622ZM30.9403 18.9938C30.8758 17.6323 30.5648 16.4263 29.5674 15.4326C28.5737 14.439 27.3677 14.128 26.0062 14.0597C24.603 13.9801 20.397 13.9801 18.9938 14.0597C17.6361 14.1242 16.4301 14.4352 15.4326 15.4288C14.4352 16.4225 14.128 17.6285 14.0597 18.99C13.9801 20.3933 13.9801 24.5992 14.0597 26.0024C14.1242 27.3639 14.4352 28.5699 15.4326 29.5636C16.4301 30.5572 17.6323 30.8682 18.9938 30.9365C20.397 31.0161 24.603 31.0161 26.0062 30.9365C27.3677 30.872 28.5737 30.561 29.5674 29.5636C30.561 28.5699 30.872 27.3639 30.9403 26.0024C31.0199 24.5992 31.0199 20.397 30.9403 18.9938ZM29.1274 27.508C28.8316 28.2514 28.259 28.824 27.5118 29.1236C26.393 29.5674 23.7383 29.465 22.5019 29.465C21.2655 29.465 18.607 29.5636 17.492 29.1236C16.7486 28.8278 16.176 28.2552 15.8764 27.508C15.4326 26.3892 15.535 23.7345 15.535 22.4981C15.535 21.2617 15.4364 18.6032 15.8764 17.4882C16.1722 16.7448 16.7448 16.1722 17.492 15.8726C18.6108 15.4288 21.2655 15.5312 22.5019 15.5312C23.7383 15.5312 26.3968 15.4326 27.5118 15.8726C28.2552 16.1684 28.8278 16.741 29.1274 17.4882C29.5712 18.607 29.4688 21.2617 29.4688 22.4981C29.4688 23.7345 29.5712 26.393 29.1274 27.508Z" fill="#838EAB"/>
</svg>
