<svg width="45" height="45" viewBox="0 0 45 45" fill="none" xmlns="http://www.w3.org/2000/svg">
<rect width="45" height="45" rx="22.5" fill="#F7F8FB"/>
<path d="M18.1337 28.9997H15.2313V19.6528H18.1337V28.9997ZM16.6809 18.3778C15.7528 18.3778 15 17.6091 15 16.6809C15 16.2351 15.1771 15.8076 15.4923 15.4923C15.8076 15.1771 16.2351 15 16.6809 15C17.1267 15 17.5543 15.1771 17.8695 15.4923C18.1848 15.8076 18.3619 16.2351 18.3619 16.6809C18.3619 17.6091 17.6088 18.3778 16.6809 18.3778ZM28.9969 28.9997H26.1006V24.4497C26.1006 23.3653 26.0787 21.9747 24.5916 21.9747C23.0825 21.9747 22.8513 23.1528 22.8513 24.3716V28.9997H19.9519V19.6528H22.7356V20.9278H22.7762C23.1637 20.1934 24.1103 19.4184 25.5225 19.4184C28.46 19.4184 29 21.3528 29 23.8653V28.9997H28.9969Z" fill="#838EAB"/>
</svg>
